<svg width="138" height="135" viewBox="0 0 138 135" fill="none" xmlns="http://www.w3.org/2000/svg">
<path d="M122.819 39.6525C122.819 51.9248 98.8102 61.8648 69.2008 61.8648C39.5913 61.8648 15.582 51.9248 15.582 39.6525M122.819 39.6525C122.819 27.3802 98.8102 17.4402 69.2008 17.4402C39.5913 17.4402 15.582 27.3802 15.582 39.6525M122.819 39.6525V67.4178M15.582 39.6525V67.4178M122.819 67.4178C122.819 79.6901 98.8102 89.6301 69.2008 89.6301C39.5913 89.6301 15.582 79.6901 15.582 67.4178M122.819 67.4178V95.1832C122.819 107.455 98.8102 117.395 69.2008 117.395C39.5913 117.395 15.582 107.455 15.582 95.1832V67.4178" stroke="#00CABA" stroke-width="6.18678" stroke-linecap="round" stroke-linejoin="round"/>
</svg>
