<svg width="150" height="135" viewBox="0 0 150 135" fill="none" xmlns="http://www.w3.org/2000/svg">
<path d="M42.3676 47.6921V34.5415H134.422V47.6921H42.3676ZM42.3676 73.9933V60.8427H134.422V73.9933H42.3676ZM42.3676 100.295V87.1439H134.422V100.295H42.3676ZM22.6417 47.6921C20.7787 47.6921 19.2182 47.0609 17.9601 45.7984C16.702 44.536 16.0708 42.9754 16.0664 41.1168C16.062 39.2582 16.6933 37.6977 17.9601 36.4352C19.227 35.1727 20.7875 34.5415 22.6417 34.5415C24.496 34.5415 26.0587 35.1727 27.3299 36.4352C28.6011 37.6977 29.2302 39.2582 29.217 41.1168C29.2039 42.9754 28.5727 44.5382 27.3233 45.805C26.074 47.0718 24.5135 47.7009 22.6417 47.6921ZM22.6417 73.9933C20.7787 73.9933 19.2182 73.3621 17.9601 72.0996C16.702 70.8372 16.0708 69.2766 16.0664 67.418C16.062 65.5594 16.6933 63.9989 17.9601 62.7364C19.227 61.4739 20.7875 60.8427 22.6417 60.8427C24.496 60.8427 26.0587 61.4739 27.3299 62.7364C28.6011 63.9989 29.2302 65.5594 29.217 67.418C29.2039 69.2766 28.5727 70.8394 27.3233 72.1062C26.074 73.3731 24.5135 74.0021 22.6417 73.9933ZM22.6417 100.295C20.7787 100.295 19.2182 99.6633 17.9601 98.4008C16.702 97.1384 16.0708 95.5778 16.0664 93.7192C16.062 91.8606 16.6933 90.3001 17.9601 89.0376C19.227 87.7752 20.7875 87.1439 22.6417 87.1439C24.496 87.1439 26.0587 87.7752 27.3299 89.0376C28.6011 90.3001 29.2302 91.8606 29.217 93.7192C29.2039 95.5778 28.5727 97.1406 27.3233 98.4074C26.074 99.6743 24.5135 100.303 22.6417 100.295Z" fill="#00CABA"/>
</svg>
