<svg width="150" height="135" viewBox="0 0 150 135" fill="none" xmlns="http://www.w3.org/2000/svg">
<path d="M42.553 37.9893L50.6398 24.9526L56.4646 15.5464C58.6701 11.9709 63.9859 11.9709 66.1914 15.5464L74.5609 29.0782L67.6051 40.4096L61.95 49.3208L42.553 37.9893ZM132.752 70.0035L123.704 55.3716L104.137 66.373L116.635 86.6706H123.025C126.025 86.6706 128.902 85.5115 131.023 83.4484C133.144 81.3852 134.335 78.5869 134.335 75.6692C134.335 73.6889 133.77 71.7637 132.752 70.0035ZM100.405 114.174H108.887C110.992 114.173 113.054 113.601 114.842 112.522C116.63 111.444 118.074 109.901 119.01 108.068L127.21 92.1713H100.405V81.1699L77.7843 103.173L100.405 125.176V114.174ZM66.4741 92.1713H42.1571L37.4068 99.9273C35.7103 102.678 35.5972 106.088 37.0675 109.003C38.651 112.139 41.9875 114.174 45.6633 114.174H66.4741V92.1713ZM44.5323 77.5944L54.3156 83.3152L46.5681 53.1163L15.5781 60.6522L25.1918 66.263L22.8732 70.0585C20.8939 73.3039 20.7243 77.2644 22.4774 80.6198L31.6952 98.5521L44.5323 77.5944ZM106.173 26.9329L98.8213 14.9963C96.729 11.6959 93.0531 9.66064 89.0946 9.66064H69.132L86.776 38.2643L77.0492 43.9301L108.096 51.4661L115.843 21.2671L106.173 26.9329Z" fill="#00CABA"/>
</svg>
